<svg width="762" height="566" viewBox="0 0 762 566" fill="none" xmlns="http://www.w3.org/2000/svg">
<g clip-path="url(#clip0_27_75)">
<path d="M616.94 479.798C616.996 479.572 617.11 479.345 617.11 479.062C617.053 478.836 616.94 478.61 616.77 478.44C616.261 477.817 615.638 477.251 615.185 476.572C614.733 475.893 614.449 475.044 614.789 474.308C614.846 474.082 615.015 473.912 615.015 473.685C615.015 473.459 614.902 473.289 614.789 473.176C614.336 472.327 613.997 471.421 614.11 470.459C614.166 469.554 614.789 468.591 615.751 468.365C614.902 467.233 615.638 465.592 616.487 464.46C617.11 463.667 617.789 462.931 618.638 462.422C619.487 461.913 620.562 461.686 621.524 462.026C621.355 460.724 620.676 459.479 620.789 458.177C620.902 456.988 621.581 455.97 622.543 455.234C622.543 455.29 622.6 455.29 622.6 455.347C623.279 454.611 624.298 454.328 625.317 454.328C626.279 454.385 627.241 454.668 628.147 455.007C628.883 455.29 629.618 455.63 630.184 456.139C630.694 456.705 631.033 457.554 630.75 458.29C631.826 458.573 632.562 459.649 632.731 460.724C632.901 461.856 632.618 462.988 632.222 464.007C633.637 464.346 634.882 465.309 635.618 466.554C636.41 467.856 636.58 469.384 636.24 470.799C637.203 471.478 637.825 472.667 637.712 473.855C637.655 474.987 636.92 476.119 635.844 476.629C636.75 477.647 636.92 479.232 636.354 480.477L617.506 482.402C616.996 481.609 616.713 480.704 616.94 479.798Z" fill="#6A8D73"/>
<path d="M607.827 474.704C607.884 474.534 607.884 474.421 607.827 474.251C607.544 473.402 607.092 472.553 606.809 471.648C606.582 470.742 606.639 469.723 607.205 468.988C607.488 468.648 607.884 468.365 608.054 467.969C608.167 467.629 608.167 467.29 608.167 467.007C608.167 465.931 608.167 464.912 608.507 463.95C608.846 462.931 609.525 462.026 610.544 461.743C610.714 461.686 610.94 461.63 611.11 461.516C611.393 461.29 611.45 460.837 611.45 460.441C611.62 459.083 612.355 457.837 613.431 457.045C614.563 456.253 615.978 455.913 617.336 456.196C617.223 455.573 617.732 454.951 618.355 454.724C618.921 454.441 619.6 454.498 620.279 454.498C621.072 454.555 621.977 454.668 622.543 455.234C621.581 455.97 620.902 456.988 620.789 458.177C620.676 459.479 621.355 460.724 621.525 462.026C620.562 461.686 619.487 461.913 618.638 462.422C617.789 462.931 617.11 463.667 616.487 464.46C615.638 465.592 614.902 467.233 615.751 468.365C614.789 468.591 614.167 469.554 614.11 470.459C613.997 471.421 614.336 472.327 614.789 473.176C614.902 473.289 615.016 473.459 615.016 473.685C615.016 473.912 614.846 474.082 614.789 474.308C614.449 475.044 614.733 475.893 615.185 476.572C615.638 477.251 616.261 477.817 616.77 478.44C616.94 478.61 617.053 478.836 617.11 479.062C617.11 479.345 616.997 479.572 616.94 479.798C616.714 480.704 616.997 481.609 617.506 482.402L610.091 483.194C609.299 483.138 608.563 482.572 608.224 481.836C607.884 481.157 607.941 480.251 608.393 479.572C607.714 478.949 607.091 478.27 606.865 477.478C606.582 476.629 606.809 475.61 607.488 475.1C607.601 474.987 607.771 474.874 607.827 474.704Z" fill="#5A7862"/>
<path d="M638.165 484.666H603.469V505.495H638.165V484.666Z" fill="#404757"/>
<path d="M605.45 484.666H603.469V505.495H605.45V484.666Z" fill="#2B303A"/>
<path d="M603.469 479.742H640.146V484.666H603.469V479.742Z" fill="#2B303A"/>
<path d="M600.526 253.851V267.718L562.264 266.812L280.51 260.36L256.738 259.794V253.851L291.433 240.38L328.11 226.117H533.172L562.264 238.116L600.526 253.851Z" fill="#C1272D"/>
<path d="M603.469 505.495H252.776V306.376H603.469V505.495Z" fill="#404757"/>
<path d="M493.495 497.571H617.336V505.495H493.495V497.571Z" fill="#ECECF5"/>
<path d="M502.438 489.647H606.469V497.571H502.438V489.647Z" fill="#DEDEE6"/>
<path d="M592.602 383.635H513.362V489.647H592.602V383.635Z" fill="#F7F7FF"/>
<path d="M587.621 391.049V388.559H518.286V489.647H520.777V391.049H587.621Z" fill="#2990CF"/>
<path d="M587.621 391.049V489.647H520.777V391.049H587.621Z" fill="#29A2E6"/>
<path d="M581.169 447.989C582.018 447.989 582.697 447.366 582.697 446.517V429.707C582.697 428.858 582.018 428.179 581.169 428.179C580.376 428.179 579.697 428.858 579.697 429.707V446.517C579.697 447.366 580.376 447.989 581.169 447.989Z" fill="#2990CF"/>
<path d="M377.126 467.856H286.962V353.92H377.126V467.856Z" fill="#F7F7FF"/>
<path d="M375.145 356.863V355.901H288.943V465.818H289.962V356.863H375.145Z" fill="#2990CF"/>
<path d="M375.145 356.863V465.818H289.962V356.863H375.145Z" fill="#29A2E6"/>
<path d="M487.552 467.856H397.445V353.92H487.552V467.856Z" fill="#F7F7FF"/>
<path d="M485.571 356.863V355.901H399.426V465.818H400.388V356.863H485.571Z" fill="#2990CF"/>
<path d="M485.571 356.863V465.818H400.388V356.863H485.571Z" fill="#29A2E6"/>
<path d="M267.661 353.92H250.795V355.901H265.68V356.863V465.875H250.795V467.856H267.661V353.92Z" fill="#F7F7FF"/>
<path d="M265.68 356.863V355.901H251.813V356.863H265.68Z" fill="#2990CF"/>
<path d="M265.68 356.863V465.818H251.813V356.863H265.68Z" fill="#29A2E6"/>
<g style="mix-blend-mode:multiply" opacity="0.2">
<path d="M603.469 322.224L252.776 311.3V306.376H603.469V322.224Z" fill="#BCBCC2"/>
</g>
<path d="M615.355 255.832V306.376H241.908V255.832H615.355Z" fill="#2B303A"/>
<g style="mix-blend-mode:multiply" opacity="0.5">
<path d="M349.279 301.395H517.664V238.965H349.279V301.395Z" fill="#2B303A"/>
</g>
<path d="M513.362 298.452H344.92V235.003H513.362V298.452Z" fill="#3B414F"/>
<path d="M356.668 263.263V247.263H362.98C364.188 247.263 365.22 247.479 366.074 247.911C366.933 248.338 367.587 248.945 368.035 249.731C368.488 250.513 368.714 251.432 368.714 252.489C368.714 253.552 368.485 254.466 368.027 255.231C367.569 255.992 366.905 256.575 366.035 256.981C365.17 257.388 364.123 257.591 362.894 257.591H358.668V254.872H362.347C362.993 254.872 363.53 254.783 363.957 254.606C364.384 254.429 364.701 254.164 364.91 253.81C365.123 253.455 365.23 253.015 365.23 252.489C365.23 251.958 365.123 251.51 364.91 251.145C364.701 250.781 364.381 250.505 363.949 250.317C363.522 250.125 362.983 250.028 362.332 250.028H360.05V263.263H356.668ZM365.308 255.981L369.285 263.263H365.55L361.66 255.981H365.308ZM371.105 263.263V247.263H381.886V250.052H374.488V253.864H381.332V256.653H374.488V260.474H381.918V263.263H371.105ZM393.255 251.864C393.193 251.234 392.925 250.744 392.451 250.395C391.977 250.046 391.334 249.872 390.521 249.872C389.969 249.872 389.503 249.95 389.123 250.106C388.742 250.257 388.451 250.468 388.248 250.739C388.05 251.01 387.951 251.317 387.951 251.661C387.94 251.948 388 252.198 388.13 252.411C388.266 252.625 388.451 252.81 388.685 252.966C388.92 253.117 389.19 253.25 389.498 253.364C389.805 253.474 390.133 253.567 390.482 253.645L391.92 253.989C392.617 254.145 393.258 254.354 393.841 254.614C394.425 254.875 394.93 255.195 395.357 255.575C395.784 255.955 396.115 256.403 396.349 256.919C396.589 257.435 396.711 258.026 396.716 258.692C396.711 259.671 396.461 260.52 395.966 261.239C395.477 261.953 394.769 262.507 393.841 262.903C392.92 263.294 391.808 263.489 390.505 263.489C389.214 263.489 388.089 263.291 387.13 262.895C386.177 262.5 385.433 261.914 384.896 261.138C384.365 260.356 384.086 259.39 384.06 258.239H387.334C387.37 258.776 387.524 259.224 387.795 259.583C388.071 259.937 388.438 260.205 388.896 260.388C389.36 260.565 389.883 260.653 390.466 260.653C391.039 260.653 391.537 260.57 391.959 260.403C392.386 260.237 392.716 260.005 392.951 259.708C393.185 259.411 393.302 259.07 393.302 258.685C393.302 258.325 393.196 258.023 392.982 257.778C392.774 257.533 392.466 257.325 392.06 257.153C391.659 256.981 391.167 256.825 390.584 256.685L388.841 256.247C387.492 255.919 386.427 255.406 385.646 254.708C384.865 254.01 384.477 253.07 384.482 251.888C384.477 250.919 384.735 250.073 385.255 249.349C385.782 248.625 386.503 248.06 387.42 247.653C388.336 247.247 389.378 247.044 390.545 247.044C391.732 247.044 392.769 247.247 393.654 247.653C394.545 248.06 395.237 248.625 395.732 249.349C396.227 250.073 396.482 250.911 396.498 251.864H393.255ZM398.382 250.052V247.263H411.523V250.052H406.625V263.263H403.281V250.052H398.382ZM414.49 263.263H410.865L416.388 247.263H420.748L426.263 263.263H422.638L418.63 250.919H418.505L414.49 263.263ZM414.263 256.974H422.826V259.614H414.263V256.974ZM438.072 247.263H441.455V257.653C441.455 258.82 441.176 259.841 440.619 260.716C440.067 261.591 439.293 262.273 438.298 262.763C437.304 263.247 436.145 263.489 434.822 263.489C433.494 263.489 432.332 263.247 431.338 262.763C430.343 262.273 429.569 261.591 429.017 260.716C428.465 259.841 428.189 258.82 428.189 257.653V247.263H431.572V257.364C431.572 257.974 431.705 258.515 431.97 258.989C432.241 259.463 432.621 259.836 433.111 260.106C433.601 260.377 434.171 260.513 434.822 260.513C435.478 260.513 436.048 260.377 436.533 260.106C437.022 259.836 437.4 259.463 437.666 258.989C437.936 258.515 438.072 257.974 438.072 257.364V247.263ZM444.238 263.263V247.263H450.55C451.759 247.263 452.79 247.479 453.644 247.911C454.504 248.338 455.157 248.945 455.605 249.731C456.058 250.513 456.285 251.432 456.285 252.489C456.285 253.552 456.056 254.466 455.597 255.231C455.139 255.992 454.475 256.575 453.605 256.981C452.741 257.388 451.694 257.591 450.464 257.591H446.238V254.872H449.918C450.563 254.872 451.1 254.783 451.527 254.606C451.954 254.429 452.272 254.164 452.48 253.81C452.694 253.455 452.8 253.015 452.8 252.489C452.8 251.958 452.694 251.51 452.48 251.145C452.272 250.781 451.951 250.505 451.519 250.317C451.092 250.125 450.553 250.028 449.902 250.028H447.621V263.263H444.238ZM452.879 255.981L456.855 263.263H453.121L449.23 255.981H452.879ZM461.433 263.263H457.808L463.332 247.263H467.691L473.207 263.263H469.582L465.574 250.919H465.449L461.433 263.263ZM461.207 256.974H469.769V259.614H461.207V256.974ZM488.515 247.263V263.263H485.593L478.632 253.192H478.515V263.263H475.132V247.263H478.101L485.007 257.325H485.148V247.263H488.515ZM490.701 250.052V247.263H503.841V250.052H498.943V263.263H495.599V250.052H490.701Z" fill="#F7F7FF"/>
<path d="M623.789 326.808V386.974H607.261V326.808H623.789Z" fill="#F7F7FF"/>
<path d="M607.261 326.808V339.6L617.336 344.128V331.336L607.261 326.808Z" fill="#C1272D"/>
<path d="M623.789 334.223L617.336 331.336V344.128L623.789 347.015V334.223Z" fill="#A82227"/>
<path d="M623.789 366.598V353.807L617.336 350.92V363.712L623.789 366.598Z" fill="#A82227"/>
<path d="M607.261 359.127L617.336 363.712V350.92L607.261 346.392V359.127Z" fill="#C1272D"/>
<path d="M607.261 378.711L617.336 383.239V370.447L607.261 365.919V378.711Z" fill="#C1272D"/>
<path d="M623.789 386.125V373.334L617.336 370.447V383.239L623.789 386.125Z" fill="#A82227"/>
<path d="M622.657 322.28H608.393C607.375 322.28 606.469 323.129 606.469 324.205V326.808H624.524V324.205C624.524 323.129 623.675 322.28 622.657 322.28Z" fill="#D2D2D9"/>
<path d="M622.657 391.502H608.393C607.375 391.502 606.469 390.597 606.469 389.578V386.974H624.524V389.578C624.524 390.597 623.675 391.502 622.657 391.502Z" fill="#D2D2D9"/>
<path d="M616.997 321.545V319.45C616.997 317.696 615.582 316.281 613.827 316.281H603.469V320.073L606.639 318.998C607.544 318.658 608.45 318.488 609.412 318.488H614.789V321.545H613.94V322.28H617.789V321.545H616.997Z" fill="#C3C3C9"/>
<path d="M616.997 392.238V394.276C616.997 396.087 615.582 397.502 613.827 397.502H603.469V393.653L606.639 394.785C607.544 395.068 608.45 395.238 609.412 395.238H614.789V392.238H613.94V391.502H617.789V392.238H616.997Z" fill="#C3C3C9"/>
<path d="M587.621 391.049V413.463L520.776 480.364V435.48L565.207 391.049H587.621Z" fill="#46B3F0"/>
<path d="M485.571 356.863V400.162L419.915 465.818H400.388V426.538L470.063 356.863H485.571Z" fill="#46B3F0"/>
<path d="M375.145 356.863V386.125L295.395 465.818H289.962V430.669L363.712 356.863H375.145Z" fill="#46B3F0"/>
<path d="M265.68 385.106V408.935L251.813 422.802V398.973L265.68 385.106Z" fill="#46B3F0"/>
<path d="M429.368 510.419H424.896L416.067 440.971H420.538L429.368 510.419Z" fill="#DCDCE3"/>
<path d="M412.954 510.419H408.482L416.067 440.971H420.538L412.954 510.419Z" fill="#ECECF5"/>
<path d="M478.666 510.419H474.195L465.309 440.971H469.78L478.666 510.419Z" fill="#DCDCE3"/>
<path d="M462.252 510.419H457.781L465.309 440.971H469.78L462.252 510.419Z" fill="#ECECF5"/>
<path d="M458.969 499.212H414.199L420.142 444.367H464.969L458.969 499.212Z" fill="#2B303A"/>
<path d="M-7.27922 -1.16546V-2.05288H-3.09811V-1.16546H-4.65671V3.03802H-5.72063V-1.16546H-7.27922ZM2.0363 0.49257C2.0363 1.04773 1.93106 1.52003 1.7206 1.90947C1.51179 2.29892 1.22676 2.59638 0.865487 2.80187C0.505875 3.00571 0.101519 3.10763 -0.347581 3.10763C-0.799996 3.10763 -1.20601 3.00488 -1.56562 2.79939C-1.92523 2.5939 -2.20944 2.29643 -2.41825 1.90699C-2.62706 1.51755 -2.73146 1.04607 -2.73146 0.49257C-2.73146 -0.0625907 -2.62706 -0.534892 -2.41825 -0.924333C-2.20944 -1.31377 -1.92523 -1.61041 -1.56562 -1.81425C-1.20601 -2.01974 -0.799996 -2.12249 -0.347581 -2.12249C0.101519 -2.12249 0.505875 -2.01974 0.865487 -1.81425C1.22676 -1.61041 1.51179 -1.31377 1.7206 -0.924333C1.93106 -0.534892 2.0363 -0.0625907 2.0363 0.49257ZM0.945033 0.49257C0.945033 0.132959 0.891174 -0.170309 0.783456 -0.417231C0.677395 -0.664153 0.527419 -0.851416 0.333527 -0.97902C0.139635 -1.10662 -0.0874013 -1.17043 -0.347581 -1.17043C-0.607761 -1.17043 -0.834797 -1.10662 -1.02869 -0.97902C-1.22258 -0.851416 -1.37339 -0.664153 -1.4811 -0.417231C-1.58716 -0.170309 -1.64019 0.132959 -1.64019 0.49257C-1.64019 0.852182 -1.58716 1.15545 -1.4811 1.40237C-1.37339 1.64929 -1.22258 1.83656 -1.02869 1.96416C-0.834797 2.09177 -0.607761 2.15557 -0.347581 2.15557C-0.0874013 2.15557 0.139635 2.09177 0.333527 1.96416C0.527419 1.83656 0.677395 1.64929 0.783456 1.40237C0.891174 1.15545 0.945033 0.852182 0.945033 0.49257ZM-5.28064 11.038H-7.08533V5.94712H-5.26573C-4.75365 5.94712 -4.31284 6.04903 -3.94328 6.25287C-3.57373 6.45505 -3.28952 6.74588 -3.09066 7.12538C-2.89014 7.50488 -2.78988 7.95895 -2.78988 8.4876C-2.78988 9.0179 -2.89014 9.47363 -3.09066 9.85479C-3.28952 10.2359 -3.57539 10.5284 -3.94826 10.7323C-4.31947 10.9361 -4.7636 11.038 -5.28064 11.038ZM-6.00898 10.1158H-5.32539C-5.0072 10.1158 -4.73957 10.0595 -4.52247 9.94676C-4.30372 9.83241 -4.13966 9.65592 -4.03029 9.41729C-3.91926 9.17699 -3.86374 8.8671 -3.86374 8.4876C-3.86374 8.11141 -3.91926 7.804 -4.03029 7.56537C-4.13966 7.32673 -4.3029 7.15107 -4.51999 7.03838C-4.73708 6.92569 -5.00472 6.86935 -5.3229 6.86935H-6.00898V10.1158ZM-1.40218 11.038H-2.55559L-0.798132 5.94712H0.588942L2.34391 11.038H1.1905L-0.0847083 7.11047H-0.124481L-1.40218 11.038ZM-1.47427 9.03696H1.25016V9.87716H-1.47427V9.03696ZM-7.38363 14.9471H-6.17801L-5.01715 17.1396H-4.96743L-3.80657 14.9471H-2.60095L-4.45784 18.2383V20.038H-5.52674V18.2383L-7.38363 14.9471Z" fill="#F7F7FF"/>
<path d="M443.631 465.648H422.349L422.576 463.384H443.857L443.631 465.648Z" fill="#F7F7FF"/>
<path d="M442.725 473.459H421.5L421.727 471.252H443.008L442.725 473.459Z" fill="#F7F7FF"/>
<path d="M441.876 481.326H420.595L420.878 479.062H442.159L441.876 481.326Z" fill="#F7F7FF"/>
<path d="M441.027 489.137H419.746L420.029 486.93H441.31L441.027 489.137Z" fill="#F7F7FF"/>
<path d="M458.177 465.648H451.442L451.668 463.384H458.403L458.177 465.648Z" fill="#C1272D"/>
<path d="M457.328 473.459H450.593L450.819 471.252H457.554L457.328 473.459Z" fill="#C1272D"/>
<path d="M456.479 481.326H449.744L449.97 479.062H456.705L456.479 481.326Z" fill="#C1272D"/>
<path d="M455.63 489.137H448.895L449.121 486.93H455.856L455.63 489.137Z" fill="#C1272D"/>
<path d="M345.939 319.224H317.186C298.056 319.224 282.491 334.732 282.491 353.92H380.578C380.578 334.732 365.07 319.224 345.939 319.224Z" fill="#C1272D"/>
<path d="M335.015 319.224H328.11C308.923 319.224 293.414 334.732 293.414 353.92H369.711C369.711 334.732 354.146 319.224 335.015 319.224Z" fill="#F7F7FF"/>
<path d="M331.563 319.224C316.507 319.224 304.338 331.45 304.338 346.449V353.92H358.787V346.449C358.787 331.45 346.618 319.224 331.563 319.224Z" fill="#C1272D"/>
<path d="M331.563 319.224C322.507 319.224 315.205 326.525 315.205 335.581V353.92H347.92V335.581C347.92 326.525 340.562 319.224 331.563 319.224Z" fill="#F7F7FF"/>
<path d="M331.563 319.224C328.563 319.224 326.129 321.658 326.129 324.658V353.92H336.996V324.658C336.996 321.658 334.563 319.224 331.563 319.224Z" fill="#C1272D"/>
<path d="M287.981 362.806C284.981 362.806 282.491 360.372 282.491 357.372V353.92H293.414V357.372C293.414 360.372 290.981 362.806 287.981 362.806Z" fill="#C1272D"/>
<path d="M298.848 362.806C295.848 362.806 293.414 360.372 293.414 357.372V353.92H304.282V357.372C304.282 360.372 301.848 362.806 298.848 362.806Z" fill="#F7F7FF"/>
<path d="M309.772 362.806C306.772 362.806 304.338 360.372 304.338 357.372V353.92H315.205V357.372C315.205 360.372 312.772 362.806 309.772 362.806Z" fill="#C1272D"/>
<path d="M320.639 362.806C317.639 362.806 315.205 360.372 315.205 357.372V353.92H326.129V357.372C326.129 360.372 323.639 362.806 320.639 362.806Z" fill="#F7F7FF"/>
<path d="M331.563 362.806C328.563 362.806 326.129 360.372 326.129 357.372V353.92H336.996V357.372C336.996 360.372 334.563 362.806 331.563 362.806Z" fill="#C1272D"/>
<path d="M342.43 362.806C339.43 362.806 336.996 360.372 336.996 357.372V353.92H347.92V357.372C347.92 360.372 345.486 362.806 342.43 362.806Z" fill="#F7F7FF"/>
<path d="M353.354 362.806C350.354 362.806 347.92 360.372 347.92 357.372V353.92H358.787V357.372C358.787 360.372 356.354 362.806 353.354 362.806Z" fill="#C1272D"/>
<path d="M364.221 362.806C361.221 362.806 358.787 360.372 358.787 357.372V353.92H369.711V357.372C369.711 360.372 367.277 362.806 364.221 362.806Z" fill="#F7F7FF"/>
<path d="M375.145 362.806C372.145 362.806 369.711 360.372 369.711 357.372V353.92H380.578V357.372C380.578 360.372 378.145 362.806 375.145 362.806Z" fill="#C1272D"/>
<path d="M208.741 362.806C205.684 362.806 203.251 360.372 203.251 357.372V353.92H214.174V357.372C214.174 360.372 211.741 362.806 208.741 362.806Z" fill="#C1272D"/>
<path d="M219.608 362.806C216.608 362.806 214.174 360.372 214.174 357.372V353.92H225.042V357.372C225.042 360.372 222.608 362.806 219.608 362.806Z" fill="#F7F7FF"/>
<path d="M230.532 362.806C227.475 362.806 225.042 360.372 225.042 357.372V353.92H235.965V357.372C235.965 360.372 233.532 362.806 230.532 362.806Z" fill="#C1272D"/>
<path d="M241.399 362.806C238.399 362.806 235.965 360.372 235.965 357.372V353.92H246.833V357.372C246.833 360.372 244.399 362.806 241.399 362.806Z" fill="#F7F7FF"/>
<path d="M248.814 319.224H237.946C218.816 319.224 203.251 334.732 203.251 353.92H214.174C214.174 334.732 229.683 319.224 248.814 319.224Z" fill="#C1272D"/>
<path d="M252.323 319.224H248.814C229.683 319.224 214.174 334.732 214.174 353.92H225.042V346.449C225.042 331.45 237.267 319.224 252.323 319.224Z" fill="#F7F7FF"/>
<path d="M252.776 319.224C252.625 319.224 252.474 319.224 252.323 319.224C252.474 319.224 252.625 319.243 252.776 319.281V319.224Z" fill="#C1272D"/>
<path d="M251.757 319.281C251.945 319.243 252.134 319.224 252.323 319.224C237.267 319.224 225.042 331.45 225.042 346.449V353.92H235.965V335.581C235.965 326.752 242.984 319.564 251.757 319.281Z" fill="#C1272D"/>
<path d="M251.757 319.281C242.984 319.564 235.965 326.752 235.965 335.581V353.92H246.833V324.658C246.833 321.884 248.983 319.564 251.757 319.281Z" fill="#F7F7FF"/>
<path d="M252.323 319.224C252.135 319.224 251.946 319.243 251.757 319.281C251.927 319.281 252.097 319.224 252.323 319.224Z" fill="#C1272D"/>
<path d="M252.776 319.281C252.625 319.243 252.474 319.224 252.323 319.224C252.493 319.224 252.606 319.224 252.776 319.281Z" fill="#C1272D"/>
<path d="M252.776 319.281C252.606 319.224 252.493 319.224 252.323 319.224C252.096 319.224 251.927 319.281 251.757 319.281C248.983 319.564 246.833 321.884 246.833 324.658V353.92H252.776V319.281Z" fill="#C1272D"/>
<path d="M246.833 353.92V357.372C246.833 359.806 248.417 361.844 250.568 362.523C251.7 362.919 252.776 362.014 252.776 360.882V353.92H246.833Z" fill="#C1272D"/>
<path d="M456.875 319.224H428.122C408.992 319.224 393.483 334.732 393.483 353.92H491.514C491.514 334.732 476.006 319.224 456.875 319.224Z" fill="#C1272D"/>
<path d="M445.951 319.224H439.046C419.915 319.224 404.35 334.732 404.35 353.92H480.647C480.647 334.732 465.139 319.224 445.951 319.224Z" fill="#F7F7FF"/>
<path d="M442.499 319.224C427.443 319.224 415.274 331.45 415.274 346.449V353.92H469.723V346.449C469.723 331.45 457.554 319.224 442.499 319.224Z" fill="#C1272D"/>
<path d="M442.499 319.224C433.499 319.224 426.141 326.525 426.141 335.581V353.92H458.856V335.581C458.856 326.525 451.555 319.224 442.499 319.224Z" fill="#F7F7FF"/>
<path d="M442.499 319.224C439.499 319.224 437.065 321.658 437.065 324.658V353.92H447.932V324.658C447.932 321.658 445.499 319.224 442.499 319.224Z" fill="#C1272D"/>
<path d="M398.917 362.806C395.917 362.806 393.483 360.372 393.483 357.372V353.92H404.35V357.372C404.35 360.372 401.917 362.806 398.917 362.806Z" fill="#C1272D"/>
<path d="M409.841 362.806C406.784 362.806 404.35 360.372 404.35 357.372V353.92H415.274V357.372C415.274 360.372 412.84 362.806 409.841 362.806Z" fill="#F7F7FF"/>
<path d="M420.708 362.806C417.708 362.806 415.274 360.372 415.274 357.372V353.92H426.141V357.372C426.141 360.372 423.708 362.806 420.708 362.806Z" fill="#C1272D"/>
<path d="M431.632 362.806C428.575 362.806 426.141 360.372 426.141 357.372V353.92H437.065V357.372C437.065 360.372 434.631 362.806 431.632 362.806Z" fill="#F7F7FF"/>
<path d="M442.499 362.806C439.499 362.806 437.065 360.372 437.065 357.372V353.92H447.932V357.372C447.932 360.372 445.499 362.806 442.499 362.806Z" fill="#C1272D"/>
<path d="M453.423 362.806C450.366 362.806 447.932 360.372 447.932 357.372V353.92H458.856V357.372C458.856 360.372 456.422 362.806 453.423 362.806Z" fill="#F7F7FF"/>
<path d="M464.29 362.806C461.29 362.806 458.856 360.372 458.856 357.372V353.92H469.723V357.372C469.723 360.372 467.29 362.806 464.29 362.806Z" fill="#C1272D"/>
<path d="M475.214 362.806C472.214 362.806 469.723 360.372 469.723 357.372V353.92H480.647V357.372C480.647 360.372 478.213 362.806 475.214 362.806Z" fill="#F7F7FF"/>
<path d="M486.081 362.806C483.081 362.806 480.647 360.372 480.647 357.372V353.92H491.514V357.372C491.514 360.372 489.081 362.806 486.081 362.806Z" fill="#C1272D"/>
<path d="M585.64 487.666H520.267C519.701 487.666 519.305 488.062 519.305 488.628C519.305 489.194 519.701 489.647 520.267 489.647H585.64C586.206 489.647 586.659 489.194 586.659 488.628C586.659 488.062 586.206 487.666 585.64 487.666Z" fill="#C1272D"/>
<path d="M574.773 368.749H531.191V378.654H574.773V368.749Z" fill="#F7F7FF"/>
<path d="M564.868 453.932L578.735 445.046L594.583 453.932H592.602L578.735 446.008L566.849 453.932H564.868Z" fill="#F7F7FF"/>
<path d="M594.583 467.856H564.868V453.932H594.583V467.856Z" fill="#2B303A"/>
<path d="M578.225 447.989C579.018 447.989 579.697 447.366 579.697 446.517V429.707C579.697 428.858 579.018 428.179 578.225 428.179C577.433 428.179 576.754 428.858 576.754 429.707V446.517C576.754 447.366 577.433 447.989 578.225 447.989Z" fill="#D2D2D9"/>
<g style="mix-blend-mode:multiply" opacity="0.2">
<path d="M567.132 467.856H594.583V455.121H596.564V468.818H566.849C566.849 468.818 567.075 467.799 567.132 467.856Z" fill="#2B303A"/>
</g>
<path d="M239.361 479.798C239.248 479.572 239.135 479.345 239.192 479.062C239.192 478.836 239.361 478.61 239.475 478.44C239.984 477.817 240.607 477.251 241.116 476.572C241.569 475.893 241.795 475.044 241.512 474.308C241.399 474.082 241.286 473.912 241.286 473.685C241.286 473.459 241.399 473.289 241.512 473.176C241.965 472.327 242.305 471.421 242.191 470.459C242.078 469.554 241.456 468.591 240.55 468.365C241.399 467.233 240.663 465.592 239.814 464.46C239.192 463.667 238.512 462.931 237.607 462.422C236.758 461.913 235.682 461.686 234.777 462.026C234.947 460.724 235.569 459.479 235.513 458.177C235.399 456.988 234.664 455.97 233.758 455.234C233.701 455.29 233.701 455.29 233.645 455.347C232.966 454.611 231.947 454.328 230.985 454.328C229.966 454.385 229.06 454.668 228.098 455.007C227.419 455.29 226.626 455.63 226.117 456.139C225.551 456.705 225.268 457.554 225.551 458.29C224.476 458.573 223.683 459.649 223.513 460.724C223.344 461.856 223.683 462.988 224.079 464.007C222.664 464.346 221.363 465.309 220.627 466.554C219.891 467.856 219.665 469.384 220.061 470.799C219.042 471.478 218.476 472.667 218.533 473.855C218.646 474.987 219.382 476.119 220.457 476.629C219.551 477.647 219.325 479.232 219.948 480.477L238.739 482.402C239.248 481.609 239.588 480.704 239.361 479.798Z" fill="#6A8D73"/>
<path d="M248.417 474.704C248.361 474.534 248.417 474.421 248.474 474.251C248.757 473.402 249.21 472.553 249.436 471.648C249.663 470.742 249.663 469.723 249.097 468.988C248.814 468.648 248.417 468.365 248.248 467.969C248.078 467.629 248.078 467.29 248.078 467.007C248.134 465.931 248.078 464.912 247.795 463.95C247.455 462.931 246.719 462.026 245.757 461.743C245.587 461.686 245.361 461.63 245.191 461.516C244.852 461.29 244.852 460.837 244.795 460.441C244.682 459.083 243.946 457.837 242.814 457.045C241.739 456.253 240.267 455.913 238.965 456.196C239.078 455.573 238.569 454.951 237.946 454.724C237.324 454.441 236.645 454.498 236.022 454.498C235.173 454.555 234.267 454.668 233.758 455.234C234.664 455.97 235.399 456.988 235.513 458.177C235.569 459.479 234.947 460.724 234.777 462.026C235.682 461.686 236.758 461.913 237.607 462.422C238.512 462.931 239.192 463.667 239.814 464.46C240.663 465.592 241.399 467.233 240.55 468.365C241.456 468.591 242.078 469.554 242.191 470.459C242.305 471.421 241.965 472.327 241.512 473.176C241.399 473.289 241.286 473.459 241.286 473.685C241.286 473.912 241.399 474.082 241.512 474.308C241.795 475.044 241.569 475.893 241.116 476.572C240.607 477.251 239.984 477.817 239.475 478.44C239.361 478.61 239.192 478.836 239.192 479.062C239.135 479.345 239.248 479.572 239.361 479.798C239.588 480.704 239.248 481.609 238.739 482.402L246.153 483.194C247.002 483.138 247.738 482.572 248.078 481.836C248.417 481.157 248.361 480.251 247.908 479.572C248.587 478.949 249.153 478.27 249.436 477.478C249.663 476.629 249.493 475.61 248.814 475.1C248.644 474.987 248.474 474.874 248.417 474.704Z" fill="#5A7862"/>
<path d="M218.136 484.666H252.776V505.495H218.136V484.666Z" fill="#404757"/>
<path d="M250.795 484.666H252.776V505.495H250.795V484.666Z" fill="#2B303A"/>
<path d="M252.776 479.742H216.155V484.666H252.776V479.742Z" fill="#2B303A"/>
<g style="mix-blend-mode:multiply" opacity="0.5">
<path d="M615.355 255.832V299.414H581.735C570.981 299.414 562.264 290.698 562.264 279.887V238.116L600.526 253.851V255.832H615.355Z" fill="#2B303A"/>
</g>
<g style="mix-blend-mode:multiply" opacity="0.5">
<path d="M291.433 240.38C289.283 244.965 286.566 250.172 283.226 255.832C282.359 257.304 281.453 258.813 280.51 260.36C271.906 274.227 259.624 290.301 242.248 306.376H241.908V255.832H256.738V253.851L291.433 240.38Z" fill="#2B303A"/>
</g>
<path d="M534.983 118.634C534.983 156.046 504.646 186.44 467.176 186.44C429.707 186.44 399.313 156.046 399.313 118.634C399.313 81.1644 429.707 50.7702 467.176 50.7702C504.646 50.7702 534.983 81.1644 534.983 118.634Z" fill="#2B303A"/>
<path d="M467.176 118.634L497.288 174.385C488.062 179.422 477.704 182.026 467.176 182.026C432.367 182.026 403.728 153.386 403.728 118.634C403.728 83.8246 432.367 55.185 467.176 55.185C501.929 55.185 530.568 83.8246 530.568 118.634H467.176Z" fill="#C1272D"/>
<path d="M467.176 118.634L407.633 140.425C405.03 133.406 403.728 126.048 403.728 118.634C403.728 83.8246 432.367 55.185 467.176 55.185C501.929 55.185 530.568 83.8246 530.568 118.634H467.176Z" fill="#F7F7FF"/>
<path d="M577.094 153.782H538.492V147.839H577.094V153.782Z" fill="#D2D2D9"/>
<path d="M569.17 164.706H530.568V158.763H569.17V164.706Z" fill="#D2D2D9"/>
<path d="M559.265 175.573H520.663V169.63H559.265V175.573Z" fill="#D2D2D9"/>
<path d="M546.416 186.497H507.759V180.554H546.416V186.497Z" fill="#D2D2D9"/>
<path d="M188.478 368.013H136.236C129.501 368.013 124.011 373.503 124.011 380.182V381.201C124.011 387.88 129.501 393.37 136.236 393.37H175.969C180.101 399.709 188.931 399.256 188.931 399.256C186.497 398.294 184.742 395.804 184.742 393.37H188.478C195.157 393.37 200.647 387.88 200.647 381.201V380.182C200.647 373.503 195.157 368.013 188.478 368.013Z" fill="#D2D2D9"/>
<path d="M188.478 435.367H112.294C105.559 435.367 100.069 440.857 100.069 447.593V448.555C100.069 455.29 105.559 460.781 112.294 460.781H175.969C180.101 467.12 188.931 466.61 188.931 466.61C186.497 465.648 184.742 463.214 184.742 460.781H188.478C195.157 460.781 200.647 455.29 200.647 448.555V447.593C200.647 440.857 195.157 435.367 188.478 435.367Z" fill="#D2D2D9"/>
<path d="M76.1836 401.69H128.425C135.104 401.69 140.594 407.18 140.594 413.916V414.878C140.594 421.557 135.104 427.047 128.425 427.047H88.6356C84.5038 433.443 75.6742 432.933 75.6742 432.933C78.108 431.971 79.9192 429.537 79.9192 427.047H76.1836C69.4482 427.047 63.958 421.557 63.958 414.878V413.916C63.958 407.18 69.4482 401.69 76.1836 401.69Z" fill="#0077B6"/>
<path d="M300.716 179.762C300.716 234.607 230.871 310.508 230.871 310.508C230.871 310.508 224.136 302.98 214.854 290.981C194.195 264.379 161.027 215.986 161.027 179.762C161.027 165.838 165.046 152.877 172.064 142.009C184.516 122.709 206.194 109.917 230.871 109.917C269.473 109.917 300.716 141.16 300.716 179.762Z" fill="#2B303A"/>
<path d="M261.322 179.762C261.322 196.572 247.682 210.212 230.871 210.212C214.061 210.212 200.421 196.572 200.421 179.762C200.421 162.951 214.061 149.311 230.871 149.311C247.682 149.311 261.322 162.951 261.322 179.762Z" fill="#C1272D"/>
<path d="M659.333 344.185V469.723" stroke="#D2D2D9" stroke-width="5.3" stroke-miterlimit="10" stroke-linecap="round"/>
<path d="M466.667 189.95V230.588" stroke="#D2D2D9" stroke-width="5.3" stroke-miterlimit="10" stroke-linecap="round"/>
<path d="M230.871 370.277V444.536" stroke="#D2D2D9" stroke-width="5.3" stroke-miterlimit="10" stroke-linecap="round"/>
<path d="M384.73 269.766L387.873 276.024L394.978 277.089L389.923 281.882L391.016 288.672L384.73 285.476L378.445 288.672L379.674 281.882L374.619 277.089L381.587 276.024L384.73 269.766Z" fill="#FFD749"/>
<path d="M408.144 269.766L411.287 276.024L418.392 277.089L413.336 281.882L414.43 288.672L408.144 285.476L401.858 288.672L403.088 281.882L398.032 277.089L405.001 276.024L408.144 269.766Z" fill="#FFD749"/>
<path d="M431.558 269.766L434.7 276.024L441.806 277.089L436.75 281.882L437.843 288.672L431.558 285.476L425.272 288.672L426.502 281.882L421.446 277.089L428.415 276.024L431.558 269.766Z" fill="#FFD749"/>
<path d="M454.971 269.766L458.114 276.024L465.219 277.089L460.164 281.882L461.257 288.672L454.971 285.476L448.686 288.672L449.915 281.882L444.86 277.089L451.828 276.024L454.971 269.766Z" fill="#FFD749"/>
<path d="M478.385 269.766L481.528 276.024L488.633 277.089L483.577 281.882L484.67 288.672L478.385 285.476L472.099 288.672L473.329 281.882L468.273 277.089L475.242 276.024L478.385 269.766Z" fill="#FFD749"/>
<path d="M731.923 199.877H581.877C574.349 199.877 568.236 205.989 568.236 213.517V282.343C568.236 289.871 574.349 295.983 581.877 295.983H627.213C629.194 295.983 631.062 297.002 632.137 298.7L656.419 336.622L680.474 298.7C681.549 297.002 683.417 295.983 685.398 295.983H731.923C739.451 295.983 745.564 289.871 745.564 282.343V213.517C745.564 205.989 739.451 199.877 731.923 199.877Z" fill="#D2D2D9"/>
<path d="M736.678 285.116H576.16V207.801H736.678V285.116Z" fill="#F7F7FF"/>
<path d="M612.7 271.124V216.578H616.194V271.124H612.7ZM621.968 234.582C621.798 232.864 621.066 231.528 619.773 230.577C618.481 229.625 616.727 229.149 614.511 229.149C613.005 229.149 611.734 229.362 610.697 229.788C609.66 230.2 608.864 230.776 608.31 231.514C607.771 232.253 607.501 233.091 607.501 234.028C607.472 234.81 607.636 235.491 607.991 236.074C608.36 236.656 608.864 237.161 609.504 237.587C610.143 237.999 610.881 238.361 611.72 238.673C612.558 238.972 613.452 239.227 614.404 239.44L618.325 240.378C620.228 240.804 621.975 241.372 623.566 242.082C625.157 242.793 626.535 243.666 627.7 244.703C628.864 245.74 629.766 246.962 630.406 248.368C631.059 249.774 631.393 251.386 631.407 253.205C631.393 255.875 630.711 258.19 629.362 260.151C628.026 262.097 626.095 263.609 623.566 264.689C621.052 265.754 618.019 266.287 614.468 266.287C610.945 266.287 607.877 265.747 605.264 264.668C602.664 263.588 600.633 261.99 599.17 259.874C597.721 257.743 596.961 255.108 596.89 251.969H605.818C605.917 253.432 606.336 254.653 607.075 255.634C607.827 256.599 608.829 257.331 610.079 257.828C611.343 258.311 612.771 258.553 614.362 258.553C615.924 258.553 617.281 258.325 618.431 257.871C619.596 257.416 620.498 256.784 621.137 255.974C621.776 255.165 622.096 254.234 622.096 253.183C622.096 252.203 621.805 251.379 621.222 250.712C620.654 250.044 619.816 249.476 618.708 249.007C617.614 248.538 616.272 248.112 614.681 247.729L609.93 246.536C606.251 245.641 603.346 244.241 601.215 242.338C599.085 240.435 598.026 237.871 598.041 234.646C598.026 232.004 598.729 229.696 600.15 227.722C601.585 225.747 603.552 224.206 606.052 223.098C608.552 221.99 611.393 221.436 614.575 221.436C617.813 221.436 620.64 221.99 623.055 223.098C625.484 224.206 627.373 225.747 628.722 227.722C630.072 229.696 630.768 231.983 630.81 234.582H621.968ZM652.016 271.124V216.578H655.51V271.124H652.016ZM661.284 234.582C661.114 232.864 660.383 231.528 659.09 230.577C657.797 229.625 656.043 229.149 653.827 229.149C652.321 229.149 651.05 229.362 650.013 229.788C648.976 230.2 648.181 230.776 647.627 231.514C647.087 232.253 646.817 233.091 646.817 234.028C646.789 234.81 646.952 235.491 647.307 236.074C647.677 236.656 648.181 237.161 648.82 237.587C649.459 237.999 650.198 238.361 651.036 238.673C651.874 238.972 652.769 239.227 653.721 239.44L657.641 240.378C659.544 240.804 661.292 241.372 662.883 242.082C664.473 242.793 665.851 243.666 667.016 244.703C668.181 245.74 669.083 246.962 669.722 248.368C670.375 249.774 670.709 251.386 670.723 253.205C670.709 255.875 670.027 258.19 668.678 260.151C667.343 262.097 665.411 263.609 662.883 264.689C660.368 265.754 657.336 266.287 653.784 266.287C650.262 266.287 647.194 265.747 644.58 264.668C641.981 263.588 639.949 261.99 638.486 259.874C637.037 257.743 636.277 255.108 636.206 251.969H645.134C645.233 253.432 645.652 254.653 646.391 255.634C647.144 256.599 648.145 257.331 649.395 257.828C650.659 258.311 652.087 258.553 653.678 258.553C655.24 258.553 656.597 258.325 657.748 257.871C658.912 257.416 659.814 256.784 660.454 255.974C661.093 255.165 661.412 254.234 661.412 253.183C661.412 252.203 661.121 251.379 660.539 250.712C659.971 250.044 659.133 249.476 658.025 249.007C656.931 248.538 655.588 248.112 653.998 247.729L649.246 246.536C645.567 245.641 642.662 244.241 640.532 242.338C638.401 240.435 637.343 237.871 637.357 234.646C637.343 232.004 638.046 229.696 639.466 227.722C640.901 225.747 642.868 224.206 645.368 223.098C647.868 221.99 650.709 221.436 653.891 221.436C657.13 221.436 659.956 221.99 662.371 223.098C664.8 224.206 666.689 225.747 668.039 227.722C669.388 229.696 670.084 231.983 670.127 234.582H661.284ZM691.332 271.124V216.578H694.827V271.124H691.332ZM700.601 234.582C700.43 232.864 699.699 231.528 698.406 230.577C697.114 229.625 695.359 229.149 693.144 229.149C691.638 229.149 690.367 229.362 689.33 229.788C688.293 230.2 687.497 230.776 686.943 231.514C686.403 232.253 686.134 233.091 686.134 234.028C686.105 234.81 686.269 235.491 686.624 236.074C686.993 236.656 687.497 237.161 688.136 237.587C688.776 237.999 689.514 238.361 690.352 238.673C691.19 238.972 692.085 239.227 693.037 239.44L696.957 240.378C698.861 240.804 700.608 241.372 702.199 242.082C703.79 242.793 705.168 243.666 706.332 244.703C707.497 245.74 708.399 246.962 709.038 248.368C709.692 249.774 710.026 251.386 710.04 253.205C710.026 255.875 709.344 258.19 707.994 260.151C706.659 262.097 704.727 263.609 702.199 264.689C699.685 265.754 696.652 266.287 693.101 266.287C689.578 266.287 686.51 265.747 683.896 264.668C681.297 263.588 679.266 261.99 677.803 259.874C676.354 257.743 675.594 255.108 675.523 251.969H684.45C684.55 253.432 684.969 254.653 685.707 255.634C686.46 256.599 687.462 257.331 688.712 257.828C689.976 258.311 691.403 258.553 692.994 258.553C694.557 258.553 695.913 258.325 697.064 257.871C698.229 257.416 699.131 256.784 699.77 255.974C700.409 255.165 700.729 254.234 700.729 253.183C700.729 252.203 700.438 251.379 699.855 250.712C699.287 250.044 698.449 249.476 697.341 249.007C696.247 248.538 694.905 248.112 693.314 247.729L688.563 246.536C684.884 245.641 681.979 244.241 679.848 242.338C677.717 240.435 676.659 237.871 676.673 234.646C676.659 232.004 677.362 229.696 678.783 227.722C680.217 225.747 682.185 224.206 684.685 223.098C687.185 221.99 690.026 221.436 693.207 221.436C696.446 221.436 699.273 221.99 701.688 223.098C704.117 224.206 706.006 225.747 707.355 227.722C708.705 229.696 709.401 231.983 709.443 234.582H700.601Z" fill="#3A9D55"/>
<path d="M671 501C671 497.134 667.866 494 664 494H67C63.134 494 60 497.134 60 501V528C60 531.866 63.134 535 67 535H664C667.866 535 671 531.866 671 528V501Z" fill="#0077B6"/>
</g>
<defs>
<clipPath id="clip0_27_75">
<rect width="849" height="566" fill="white"/>
</clipPath>
</defs>
</svg>
